<svg width="165" height="37" viewBox="0 0 165 37" fill="none" xmlns="http://www.w3.org/2000/svg">
<g clip-path="url(#clip0)">
<path d="M43.4375 21.1699H32.3457V30.2402H45.2305V33H28.9707V7.40625H45.0547V10.1836H32.3457V18.4102H43.4375V21.1699ZM57.9043 28.5176L65.2168 7.40625H68.9082L59.416 33H56.4277L46.9531 7.40625H50.627L57.9043 28.5176Z" fill="#00AB44"/>
<path d="M72.9707 33V7.40625H81.3379C84.1152 7.40625 86.2012 7.98047 87.5957 9.12891C89.002 10.2773 89.7051 11.9766 89.7051 14.2266C89.7051 15.4219 89.3652 16.4824 88.6855 17.4082C88.0059 18.3223 87.0801 19.0312 85.9082 19.5352C87.291 19.9219 88.3809 20.6602 89.1777 21.75C89.9863 22.8281 90.3906 24.1172 90.3906 25.6172C90.3906 27.9141 89.6465 29.7188 88.1582 31.0312C86.6699 32.3438 84.5664 33 81.8477 33H72.9707ZM76.3457 21.0293V30.2402H81.918C83.4883 30.2402 84.7246 29.8359 85.627 29.0273C86.541 28.207 86.998 27.082 86.998 25.6523C86.998 22.5703 85.3223 21.0293 81.9707 21.0293H76.3457ZM76.3457 18.3223H81.4434C82.9199 18.3223 84.0977 17.9531 84.9766 17.2148C85.8672 16.4766 86.3125 15.4746 86.3125 14.209C86.3125 12.8027 85.9023 11.7832 85.082 11.1504C84.2617 10.5059 83.0137 10.1836 81.3379 10.1836H76.3457V18.3223ZM115.088 21.0293C115.088 23.5371 114.666 25.7285 113.822 27.6035C112.979 29.4668 111.783 30.8906 110.236 31.875C108.689 32.8594 106.885 33.3516 104.822 33.3516C102.807 33.3516 101.02 32.8594 99.4609 31.875C97.9023 30.8789 96.6895 29.4668 95.8223 27.6387C94.9668 25.7988 94.5273 23.6719 94.5039 21.2578V19.4121C94.5039 16.9512 94.9316 14.7773 95.7871 12.8906C96.6426 11.0039 97.8496 9.5625 99.4082 8.56641C100.979 7.55859 102.771 7.05469 104.787 7.05469C106.838 7.05469 108.643 7.55273 110.201 8.54883C111.771 9.5332 112.979 10.9688 113.822 12.8555C114.666 14.7305 115.088 16.916 115.088 19.4121V21.0293ZM111.73 19.377C111.73 16.3418 111.121 14.0156 109.902 12.3984C108.684 10.7695 106.979 9.95508 104.787 9.95508C102.654 9.95508 100.973 10.7695 99.7422 12.3984C98.5234 14.0156 97.8965 16.2656 97.8613 19.1484V21.0293C97.8613 23.9707 98.4766 26.2852 99.707 27.9727C100.949 29.6484 102.654 30.4863 104.822 30.4863C107.002 30.4863 108.689 29.6953 109.885 28.1133C111.08 26.5195 111.695 24.2402 111.73 21.2754V19.377ZM139.838 21.0293C139.838 23.5371 139.416 25.7285 138.572 27.6035C137.729 29.4668 136.533 30.8906 134.986 31.875C133.439 32.8594 131.635 33.3516 129.572 33.3516C127.557 33.3516 125.77 32.8594 124.211 31.875C122.652 30.8789 121.439 29.4668 120.572 27.6387C119.717 25.7988 119.277 23.6719 119.254 21.2578V19.4121C119.254 16.9512 119.682 14.7773 120.537 12.8906C121.393 11.0039 122.6 9.5625 124.158 8.56641C125.729 7.55859 127.521 7.05469 129.537 7.05469C131.588 7.05469 133.393 7.55273 134.951 8.54883C136.521 9.5332 137.729 10.9688 138.572 12.8555C139.416 14.7305 139.838 16.916 139.838 19.4121V21.0293ZM136.48 19.377C136.48 16.3418 135.871 14.0156 134.652 12.3984C133.434 10.7695 131.729 9.95508 129.537 9.95508C127.404 9.95508 125.723 10.7695 124.492 12.3984C123.273 14.0156 122.646 16.2656 122.611 19.1484V21.0293C122.611 23.9707 123.227 26.2852 124.457 27.9727C125.699 29.6484 127.404 30.4863 129.572 30.4863C131.752 30.4863 133.439 29.6953 134.635 28.1133C135.83 26.5195 136.445 24.2402 136.48 21.2754V19.377ZM151.404 21.0996L148.275 24.3516V33H144.9V7.40625H148.275V20.0625L159.648 7.40625H163.727L153.654 18.709L164.518 33H160.475L151.404 21.0996Z" fill="#004438"/>
<path d="M2.14655 35.8434L13.6164 2.13544L16.2344 1.90639L4.72868 35.6175L2.14655 35.8434Z" fill="#009B47"/>
<g filter="url(#filter0_d)">
<path d="M13.65 4.4L31.45 19.6L13.6 34.85L9.5 30.2L22.25 19.7L9.4 9.15L13.65 4.4Z" fill="#00CF3A"/>
</g>
</g>
<defs>
<filter id="filter0_d" x="8.39999" y="4.39999" width="23.05" height="31.45" filterUnits="userSpaceOnUse" color-interpolation-filters="sRGB">
<feFlood flood-opacity="0" result="BackgroundImageFix"/>
<feColorMatrix in="SourceAlpha" type="matrix" values="0 0 0 0 0 0 0 0 0 0 0 0 0 0 0 0 0 0 127 0"/>
<feOffset dx="-1" dy="1"/>
<feColorMatrix type="matrix" values="0 0 0 0 0 0 0 0 0 0 0 0 0 0 0 0 0 0 0.1 0"/>
<feBlend mode="normal" in2="BackgroundImageFix" result="effect1_dropShadow"/>
<feBlend mode="normal" in="SourceGraphic" in2="effect1_dropShadow" result="shape"/>
</filter>
<clipPath id="clip0">
<rect width="165" height="37" fill="white"/>
</clipPath>
</defs>
</svg>
